<?xml version="1.0" encoding="utf-8"?>
<!-- Generator: Adobe Illustrator 24.0.3, SVG Export Plug-In . SVG Version: 6.00 Build 0)  -->
<svg version="1.1" id="Layer_1" xmlns="http://www.w3.org/2000/svg" xmlns:xlink="http://www.w3.org/1999/xlink" x="0px" y="0px"
	 viewBox="0 0 24 24" style="enable-background:new 0 0 24 24;" xml:space="preserve">
<style type="text/css">
	.st0{fill:#9D9DB4;}
	.st1{fill:#FFFFFF;}
</style>
<g>
	<g>
		<path class="st0" d="M22.6,20.1c0,0.9-0.7,1.6-1.5,1.6H3.3c-0.8,0-1.5-0.8-1.5-1.6V5.3c0-0.9,0.7-1.6,1.5-1.6h17.8
			c0.8,0,1.5,0.8,1.5,1.6V20.1z"/>
	</g>
	<g>
		<path class="st1" d="M7.1,5.2c0,0.3-0.2,0.6-0.6,0.6H5.8c-0.2,0-0.6-0.3-0.6-0.6V1.5C5.2,1.2,5.4,1,5.8,1h0.8
			c0.3,0,0.6,0.3,0.6,0.6V5.2z"/>
	</g>
	<g>
		<path class="st0" d="M6.8,4.9c0,0.3-0.2,0.5-0.5,0.5H6.1c-0.3,0-0.5-0.2-0.5-0.5V2.8c0-0.3,0.2-0.5,0.5-0.5h0.2
			c0.3,0,0.5,0.2,0.5,0.5V4.9z"/>
	</g>
	<g>
		<path class="st1" d="M20.4,18.8c0,0.6-0.4,1-1,1H4.9c-0.6,0-1-0.4-1-1V9.6c0-0.6,0.5-1,1-1h14.4c0.6,0,1,0.4,1,1V18.8z"/>
	</g>
	<g>
		<path class="st1" d="M19.5,5.2c0,0.3-0.2,0.6-0.5,0.6h-0.8c-0.2,0-0.5-0.3-0.5-0.6V1.5c0-0.3,0.2-0.6,0.5-0.6H19
			c0.3,0,0.5,0.3,0.5,0.6V5.2z"/>
	</g>
	<g>
		<path class="st0" d="M19.2,4.9c0,0.3-0.2,0.5-0.5,0.5h-0.2c-0.3,0-0.5-0.2-0.5-0.5V2.8c0-0.3,0.2-0.5,0.5-0.5h0.2
			c0.3,0,0.5,0.2,0.5,0.5V4.9z"/>
	</g>
</g>
</svg>
