<?xml version="1.0" encoding="utf-8"?>
<!-- Generator: Adobe Illustrator 24.0.3, SVG Export Plug-In . SVG Version: 6.00 Build 0)  -->
<svg version="1.1" id="Layer_1" xmlns="http://www.w3.org/2000/svg" xmlns:xlink="http://www.w3.org/1999/xlink" x="0px" y="0px"
	 viewBox="0 0 24 24" style="enable-background:new 0 0 24 24;" xml:space="preserve">
<style type="text/css">
	.st0{fill:#B33771;}
	.st1{fill:#9D9DB4;}
	.st2{fill:#FFFFFF;}
</style>
<circle class="st0" cx="12" cy="12" r="11.7"/>
<g>
	<path class="st1" d="M8.9,18.2L8.9,18.2c-1,0-1.7-0.6-1.7-1.4V7.1c0-0.8,0.8-1.4,1.7-1.4l0,0c1,0,1.7,0.6,1.7,1.4v9.8
		C10.6,17.7,9.9,18.2,8.9,18.2z"/>
	<path class="st2" d="M15.1,5.8L15.1,5.8c1,0,1.7,0.6,1.7,1.4v9.8c0,0.8-0.8,1.4-1.7,1.4l0,0c-1,0-1.7-0.6-1.7-1.4V7.1
		C13.3,6.3,14.1,5.8,15.1,5.8z"/>
</g>
</svg>
